# xmcd
#
# Track frame offsets: 
#        150
#        28781
#        46472
#        72140
#        95481
#        121330
#        131519
#        155974
#        184028
#        218381
#
# Disc length: 3202 seconds
#
# Revision: 1
# Processed by: cddbd v1.5.2PL0 Copyright (c) Steve Scherf et al.
# Submitted via: ExactAudioCopy v1.0b3
#
DISCID=890c800a
DTITLE=Andrea Mann - Photograph
DYEAR=2009
DGENRE=Jazz Vocals
TTITLE0=Every Night
TTITLE1=Travelin' Light
TTITLE2=East Of The Sun
TTITLE3=Scotch And Soda
TTITLE4=Love, Look Away
TTITLE5=All I Do
TTITLE6=Sparks
TTITLE7=Yosemite
TTITLE8=All The Way - Come Rain Or Come Shine
TTITLE9=Photograph
EXTD=
EXTT0=
EXTT1=
EXTT2=
EXTT3=
EXTT4=
EXTT5=
EXTT6=
EXTT7=
EXTT8=
EXTT9=
PLAYORDER=
